<?xml version="1.0" encoding="UTF-8"?>
<!-- Generator: Adobe Illustrator 22.0.1, SVG Export Plug-In . SVG Version: 6.00 Build 0)  -->
<svg version="1.1" xmlns="http://www.w3.org/2000/svg" xmlns:xlink="http://www.w3.org/1999/xlink" x="0px" y="0px" viewBox="0 0 24 24" style="enable-background:new 0 0 24 24;" xml:space="preserve">
<style type="text/css">
	.st0{fill:none;}
</style>
<g id="Capa_2">
	<rect class="st0" width="24" height="24"/>
</g>
<g id="Capa_2_1_">
	<path d="M19.7,5.2h-3.9V4c0-0.9-0.8-1.6-1.7-1.6H9.8C8.9,2.4,8.1,3.1,8.1,4v1.2H4.3C3.2,5.2,2.4,6,2.4,7.1v12.6   c0,1.1,0.9,1.9,1.9,1.9h15.5c1.1,0,1.9-0.9,1.9-1.9V7.1C21.6,6,20.8,5.2,19.7,5.2z M10.1,4.3h3.8v0.9h-3.8V4.3z M19.7,7.2v2H4.3v-2   H19.7z M4.3,19.7v-8.5h15.3v8.5H4.3z"/>
	<rect class="st0" width="24" height="24"/>
</g>
</svg>